<?xml version="1.0" encoding="UTF-8"?>
<svg xmlns="http://www.w3.org/2000/svg" viewBox="0 0 720 360" fill-rule="evenodd">
<title>Africa/Cairo</title>
<path d="M410.8,132.3L409.8,133.1L410.0,134.6L409.4,136.1L410.0,138.5L410.0,143.8L410.0,151.7L410.0,156.4L416.6,156.4L422.0,156.4L426.4,156.4L427.2,157.2L428.2,156.4L434.2,156.4L434.0,155.7L433.2,153.9L433.2,152.4L432.0,151.4L431.6,150.5L430.8,149.7L430.2,148.0L429.0,146.0L428.4,144.2L428.6,143.0L429.0,142.3L429.0,141.8L429.8,137.8L428.6,133.6L428.2,132.8L427.4,133.3L426.2,133.1L425.4,133.3L423.8,132.3L423.2,132.3L422.0,132.1L420.4,132.3L418.0,133.8L416.0,133.1L412.6,132.1L410.8,132.3Z" fill="#2f8cff" fill-opacity=".58" stroke="#e5f2ff" stroke-width="1.8" vector-effect="non-scaling-stroke"/>
</svg>
