<?xml version="1.0" encoding="UTF-8"?>
<svg xmlns="http://www.w3.org/2000/svg" viewBox="0 0 720 360" fill-rule="evenodd">
<title>Africa/Lagos</title>
<path d="M363.4,196.1L365.8,195.6L367.8,195.6L368.6,195.6L369.6,196.6L371.2,200.1L372.2,200.9L376.8,200.1L377.2,201.1L376.6,202.3L376.8,203.3L377.6,203.6L378.2,202.1L378.8,201.8L379.4,203.1L379.2,206.1L378.2,208.1L378.2,210.0L377.0,212.5L377.0,212.8L378.2,216.0L379.6,218.2L380.6,219.0L381.6,220.7L383.2,222.5L383.8,224.2L384.2,226.4L384.8,227.9L386.4,231.9L385.6,233.4L386.2,236.1L387.4,238.3L387.0,241.3L385.4,242.8L384.6,244.3L384.2,247.5L383.6,249.5L383.0,250.3L383.0,252.0L383.0,253.7L384.2,253.5L385.2,253.7L386.0,253.2L386.8,253.2L388.0,254.2L388.4,254.2L392.2,254.2L396.8,254.2L397.8,255.2L400.6,255.5L401.6,255.7L402.8,255.7L406.4,254.5L404.2,252.0L404.0,251.3L404.0,243.3L408.2,243.3L407.8,242.8L408.2,241.8L408.0,240.1L408.0,238.1L406.4,238.6L404.4,238.6L404.6,236.9L404.4,235.6L403.6,234.4L404.0,232.1L403.6,230.9L403.6,229.2L401.2,229.2L401.2,228.2L400.0,228.4L399.4,227.2L399.4,226.4L400.2,225.4L400.4,223.7L400.2,223.0L400.4,221.7L401.4,221.2L401.2,219.7L401.8,217.5L403.0,217.2L403.4,217.7L404.4,216.7L404.4,215.8L405.2,215.5L406.8,216.2L408.0,215.5L408.8,215.3L408.6,214.3L407.0,213.5L407.2,212.0L405.8,209.8L405.2,207.6L404.6,207.3L405.0,206.3L406.0,205.6L406.6,205.8L407.0,204.8L406.0,204.6L406.0,203.3L405.2,203.1L406.0,202.1L405.2,199.9L405.8,199.1L406.6,199.6L409.0,198.4L409.4,198.9L410.6,198.6L411.2,197.9L412.4,197.9L413.0,198.6L414.6,198.1L414.4,196.9L412.6,195.1L412.8,194.4L411.6,193.2L410.4,192.4L410.6,191.7L409.8,190.7L408.4,190.4L408.6,189.4L407.0,189.2L407.4,187.9L407.4,186.5L406.6,185.0L405.8,184.0L405.8,182.7L405.2,182.0L405.2,181.2L404.4,179.5L403.8,178.5L404.6,177.8L404.2,176.8L405.0,176.0L404.8,174.8L406.0,173.3L406.2,172.1L408.0,172.1L408.0,168.6L408.0,162.6L403.4,159.6L399.4,156.9L395.6,154.7L392.0,152.7L388.4,154.9L386.8,153.4L384.0,152.7L383.2,150.7L381.8,150.2L380.8,150.2L380.0,149.0L380.0,148.0L378.8,146.0L379.8,145.2L379.6,143.3L380.0,141.8L379.6,140.8L379.8,139.5L379.6,138.0L378.8,136.1L379.8,135.6L380.6,134.6L380.2,132.8L381.4,131.6L383.0,130.6L383.0,128.9L383.4,128.4L382.8,127.9L382.4,126.6L382.6,125.6L383.4,125.1L383.8,124.4L382.8,123.4L382.6,121.9L381.6,121.7L382.8,119.4L382.2,118.4L380.8,118.2L380.2,117.7L378.8,117.9L377.8,117.2L377.2,117.7L377.4,118.7L375.4,118.7L374.8,118.4L373.6,118.7L372.8,118.4L372.0,118.9L370.4,119.2L367.8,118.9L365.8,119.2L364.8,119.7L361.6,120.2L360.0,121.2L357.4,122.2L356.6,122.9L355.6,123.4L355.6,123.9L356.4,125.1L356.8,126.4L356.6,128.4L357.2,129.6L358.0,130.3L357.6,131.3L356.0,131.1L354.2,131.6L354.4,132.1L352.6,132.6L352.4,133.6L352.8,134.8L351.4,135.3L348.4,137.5L344.8,138.0L342.6,139.8L342.6,143.3L348.0,147.2L352.8,151.0L356.6,153.9L359.8,156.7L362.4,158.6L362.4,159.6L363.2,159.9L364.0,160.9L366.6,161.9L366.4,163.6L366.8,163.9L368.6,163.6L368.6,168.8L368.4,170.3L367.8,172.1L367.0,172.8L362.6,173.0L362.0,173.8L360.4,173.8L360.4,175.0L361.2,176.8L362.0,177.5L362.0,178.5L363.8,179.8L364.8,181.5L364.0,182.7L362.8,182.5L361.8,183.7L361.6,185.2L362.8,186.2L362.8,187.9L363.2,188.7L363.2,193.7L363.2,194.4L363.6,195.4L363.4,196.1Z" fill="#2f8cff" fill-opacity=".58" stroke="#e5f2ff" stroke-width="1.8" vector-effect="non-scaling-stroke"/>
</svg>
