<?xml version="1.0" encoding="UTF-8"?>
<svg xmlns="http://www.w3.org/2000/svg" viewBox="0 0 720 360" fill-rule="evenodd">
<title>America/Santiago</title>
<path d="M209.8,319.8L212.2,319.3L216.8,320.0L216.2,319.0L216.4,318.3L215.6,317.3L216.6,315.6L216.2,312.1L216.6,309.8L217.2,308.6L217.2,307.6L218.2,307.4L218.0,305.6L217.6,304.6L217.6,302.4L218.2,301.4L219.2,300.4L219.2,298.7L219.6,296.9L220.4,295.9L220.2,295.0L220.4,293.7L219.4,291.2L219.4,290.2L218.8,289.5L219.6,286.8L220.2,286.3L220.0,283.8L220.4,283.3L220.6,281.8L221.6,280.6L222.4,278.6L223.4,277.8L222.8,276.8L223.2,276.1L222.8,274.1L223.2,273.1L222.8,272.6L223.6,271.6L225.4,270.6L226.0,268.1L225.6,267.6L224.8,267.9L224.4,267.1L223.6,264.7L223.6,263.9L223.0,262.2L222.6,261.9L222.6,259.9L223.2,259.2L222.0,258.0L221.8,255.7L221.0,254.5L220.4,255.0L220.0,256.5L218.8,256.7L218.8,257.7L219.4,260.7L219.2,261.9L219.4,264.4L219.0,267.6L218.4,268.1L218.6,269.9L218.4,272.4L218.6,273.6L218.0,274.8L218.2,277.1L217.6,278.3L217.2,281.3L216.4,283.0L216.8,285.5L216.2,287.3L216.6,291.5L216.0,293.2L216.0,294.5L215.6,295.7L215.2,297.9L214.4,299.2L213.8,300.9L213.0,302.4L212.4,302.6L212.2,303.9L212.6,305.6L211.6,306.1L212.4,306.9L213.0,308.6L212.0,310.3L211.6,312.8L211.8,313.8L211.4,314.8L210.6,318.3L209.8,319.8ZM200.2,276.8L200.6,276.1L199.8,275.8L199.4,276.6L200.2,276.8Z" fill="#2f8cff" fill-opacity=".58" stroke="#e5f2ff" stroke-width="1.8" vector-effect="non-scaling-stroke"/>
</svg>
