<?xml version="1.0" encoding="UTF-8"?>
<svg xmlns="http://www.w3.org/2000/svg" viewBox="0 0 720 360" fill-rule="evenodd">
<title>America/Anchorage</title>
<path d="M78.4,37.7L74.0,36.5L70.4,36.7L64.0,35.5L60.6,35.3L58.0,35.5L56.2,34.8L52.4,34.5L47.2,33.3L44.4,34.3L41.0,34.8L37.2,36.0L35.6,36.0L33.0,37.5L32.6,38.7L31.2,39.5L27.4,39.5L25.2,41.5L31.0,43.4L30.8,45.2L27.8,45.9L23.2,47.7L22.0,47.2L22.0,48.4L24.6,49.2L27.0,51.4L29.8,51.6L32.6,51.1L34.6,51.9L36.6,51.6L37.4,52.6L34.8,52.6L33.6,53.1L29.2,54.1L29.2,55.1L27.4,56.6L27.0,58.6L28.0,59.6L27.2,60.6L24.4,61.3L24.6,62.3L27.4,63.1L28.2,63.1L30.4,62.1L31.8,63.3L34.6,63.1L35.6,64.8L35.0,65.5L36.4,66.0L40.4,66.0L42.2,66.5L44.0,66.5L43.8,67.8L42.0,69.3L37.8,71.5L36.0,71.8L33.0,73.7L30.6,74.2L29.4,75.7L27.6,76.0L25.0,77.0L23.8,76.7L23.6,77.5L21.4,79.2L21.0,80.4L21.6,80.4L27.0,78.7L28.6,77.5L30.4,77.2L32.0,76.0L33.4,76.0L34.4,76.7L35.8,76.5L37.8,74.5L40.8,75.5L42.2,74.5L41.4,73.2L43.0,72.7L44.4,71.8L45.6,71.8L46.2,72.5L47.4,72.0L46.8,70.5L48.2,69.0L49.6,69.0L50.6,70.0L49.6,71.0L50.4,71.5L52.8,71.0L53.2,70.3L56.0,69.0L57.2,66.0L56.2,65.3L57.4,64.8L61.0,63.8L62.0,62.8L64.4,63.1L68.0,61.6L69.4,62.1L70.8,63.1L71.8,62.6L74.6,62.3L79.2,63.3L83.4,65.0L84.2,65.8L86.0,66.8L87.4,68.5L87.6,69.8L89.2,70.8L90.6,72.7L91.8,73.0L92.2,75.2L93.8,75.5L96.0,75.7L97.6,75.2L98.2,75.2L98.8,75.2L100.0,73.7L99.8,71.8L97.8,71.0L95.8,69.8L93.2,66.0L90.0,63.8L89.0,62.6L87.6,63.1L86.8,64.1L85.0,64.8L84.8,64.1L80.6,61.3L80.0,61.6L78.0,61.3L78.0,54.6L78.0,49.7L78.0,43.2L78.0,38.2L78.4,37.7ZM15.4,53.6L18.0,54.1L21.0,55.4L23.2,54.6L23.0,53.4L20.8,53.1L19.4,52.4L18.0,52.6L15.8,52.4L15.4,53.6ZM18.4,69.3L19.4,69.8L20.6,69.3L19.6,68.5L18.4,69.3ZM13.6,61.3L14.4,62.1L16.4,61.1L14.4,60.1L13.0,60.3L13.6,61.3Z" fill="#2f8cff" fill-opacity=".58" stroke="#e5f2ff" stroke-width="1.8" vector-effect="non-scaling-stroke"/>
</svg>
