<?xml version="1.0" encoding="UTF-8"?>
<svg xmlns="http://www.w3.org/2000/svg" viewBox="0 0 720 360" fill-rule="evenodd">
<title>Australia/Adelaide</title>
<path d="M642.0,306.1L642.0,299.9L642.0,295.4L642.0,291.0L643.8,291.2L644.0,289.5L642.0,289.5L642.0,283.0L642.0,275.6L636.0,275.6L629.4,275.6L624.8,275.6L618.0,275.6L618.0,279.1L618.0,283.8L618.0,288.7L618.0,290.2L622.4,289.7L623.4,290.2L624.0,291.2L625.8,291.2L625.8,292.2L627.6,292.7L628.6,294.2L628.2,294.5L628.6,295.9L629.6,295.2L630.0,296.4L629.2,296.7L629.0,297.7L630.6,297.7L632.8,300.7L634.4,301.9L635.6,300.7L636.2,300.7L637.8,299.9L638.6,300.9L639.2,301.9L638.8,302.9L640.4,305.6L642.0,306.1Z" fill="#2f8cff" fill-opacity=".58" stroke="#e5f2ff" stroke-width="1.8" vector-effect="non-scaling-stroke"/>
</svg>
