<?xml version="1.0" encoding="UTF-8"?>
<svg xmlns="http://www.w3.org/2000/svg" viewBox="0 0 720 360" fill-rule="evenodd">
<title>Europe/Athens</title>
<path d="M407.0,77.0L408.8,77.2L411.0,76.2L411.4,75.0L412.8,74.0L413.4,72.7L415.4,72.2L416.4,71.5L414.6,68.3L415.4,67.0L414.8,65.0L416.0,63.3L413.6,62.8L412.8,62.3L409.0,62.8L404.6,64.1L403.4,64.8L402.8,66.3L403.4,67.5L402.2,68.5L401.2,70.8L401.4,73.5L405.8,74.7L405.6,76.0L407.0,77.0ZM406.4,68.0L408.0,67.3L408.0,68.8L406.4,68.0ZM400.4,54.1L401.8,58.1L401.6,59.3L400.0,60.3L398.4,60.6L398.2,61.6L399.8,63.1L400.8,63.3L404.8,63.3L409.8,62.3L412.0,62.1L414.6,61.6L418.4,58.8L422.4,55.9L423.2,54.9L422.4,54.1L420.0,52.6L421.0,52.1L419.4,50.2L419.2,48.9L420.0,47.9L419.8,46.9L418.2,44.7L419.8,43.4L416.8,41.0L417.8,39.5L418.2,38.0L415.2,37.0L411.8,38.0L411.6,39.7L409.8,40.7L408.0,40.2L406.4,40.7L404.6,40.2L403.2,39.0L402.0,39.2L402.8,40.5L406.2,41.5L407.2,42.2L407.2,44.2L408.0,45.2L407.2,46.4L408.2,48.4L407.6,50.4L406.4,50.9L403.8,52.9L402.8,53.1L400.4,54.1ZM411.8,110.0L413.2,108.5L413.2,106.8L416.6,106.8L416.2,106.0L416.6,103.8L417.6,103.3L418.4,100.6L419.4,100.3L420.0,99.1L420.2,98.1L421.8,96.6L425.6,97.3L427.6,96.3L430.4,97.3L431.2,96.1L432.6,96.1L434.8,95.1L436.6,94.3L436.8,92.9L437.6,92.1L439.4,92.4L439.8,91.4L439.4,90.4L440.4,88.6L439.2,87.6L435.6,86.6L435.0,85.9L433.4,86.2L431.0,85.7L430.2,83.9L428.6,83.9L428.8,82.4L427.6,80.9L425.2,81.2L424.6,81.7L422.2,81.7L420.4,83.2L418.6,83.4L417.6,83.2L414.6,82.9L412.0,82.2L408.8,82.2L407.2,83.2L408.2,85.4L405.2,88.1L405.4,88.4L404.2,90.9L405.4,92.4L404.0,93.1L402.4,96.1L400.6,96.6L401.6,97.6L402.0,98.6L403.0,98.8L403.2,100.1L405.2,100.3L405.2,101.5L404.8,102.3L406.0,104.0L405.0,104.5L405.0,106.5L406.0,107.5L405.4,108.7L404.0,109.0L403.2,109.5L402.0,109.5L401.4,111.5L400.2,112.5L398.6,111.5L398.4,112.5L400.4,114.5L400.6,115.4L400.2,116.4L401.4,117.9L402.6,118.2L403.0,119.9L404.2,120.4L404.6,121.2L406.4,121.4L406.6,120.4L406.2,118.9L407.0,118.7L407.2,117.7L408.4,117.7L408.8,118.9L408.4,120.4L410.0,120.4L411.6,119.9L411.2,118.4L409.8,119.2L408.4,116.9L409.2,116.9L409.8,118.4L411.2,117.9L408.8,115.9L408.6,115.0L407.6,113.7L406.8,113.5L405.4,111.5L406.4,111.2L407.4,112.2L408.8,111.5L409.2,110.5L410.2,109.5L411.8,110.0ZM416.4,120.4L415.2,120.9L414.6,120.2L414.6,119.9L414.6,119.7L415.0,119.4L414.2,119.2L414.4,118.9L414.2,118.9L413.8,117.7L414.2,117.2L413.4,116.9L412.6,117.9L413.8,120.2L415.2,121.4L416.4,121.4L416.4,120.4ZM412.4,116.2L412.6,115.2L411.6,115.0L411.6,116.2L412.4,116.2ZM412.2,113.2L411.4,113.7L412.8,114.5L413.4,114.2L413.4,114.0L413.2,113.7L413.0,113.2L412.8,113.2L412.2,113.2ZM409.8,122.9L408.8,123.1L408.2,122.4L407.0,122.4L407.0,123.6L408.6,123.9L409.4,124.6L411.8,124.4L413.0,123.4L412.4,122.9L411.0,123.1L409.8,122.9ZM428.0,124.4L429.4,122.9L429.0,121.9L427.2,122.6L425.8,122.6L424.2,123.6L424.4,125.1L426.6,125.4L428.0,124.4Z" fill="#2f8cff" fill-opacity=".58" stroke="#e5f2ff" stroke-width="1.8" vector-effect="non-scaling-stroke"/>
</svg>
